STARTFONT 2.1
COMMENT Exported by Fony v1.4.7
FONT Minecraft
SIZE 11 96 96
FONTBOUNDINGBOX 10 10 0 -2
STARTPROPERTIES 6
COPYRIGHT "Created by Bernasss12 for Logistics Pipes"
RESOLUTION_X 96
RESOLUTION_Y 96
FONT_ASCENT 9
FONT_DESCENT 2
DEFAULT_CHAR 0
ENDPROPERTIES
CHARS 256
STARTCHAR 000
ENCODING 0
SWIDTH 144 0
DWIDTH 2 0
BBX 0 0 0 0
BITMAP
ENDCHAR
STARTCHAR 001
ENCODING 1
SWIDTH 288 0
DWIDTH 4 0
BBX 3 7 0 0
BITMAP
E0
A0
A0
A0
A0
A0
E0
ENDCHAR
STARTCHAR 002
ENCODING 2
SWIDTH 144 0
DWIDTH 2 0
BBX 0 0 0 0
BITMAP
ENDCHAR
STARTCHAR 003
ENCODING 3
SWIDTH 288 0
DWIDTH 4 0
BBX 3 7 0 0
BITMAP
E0
A0
A0
A0
A0
A0
E0
ENDCHAR
STARTCHAR 004
ENCODING 4
SWIDTH 288 0
DWIDTH 4 0
BBX 3 7 0 0
BITMAP
E0
A0
A0
A0
A0
A0
E0
ENDCHAR
STARTCHAR 005
ENCODING 5
SWIDTH 288 0
DWIDTH 4 0
BBX 3 7 0 0
BITMAP
E0
A0
A0
A0
A0
A0
E0
ENDCHAR
STARTCHAR 006
ENCODING 6
SWIDTH 288 0
DWIDTH 4 0
BBX 3 7 0 0
BITMAP
E0
A0
A0
A0
A0
A0
E0
ENDCHAR
STARTCHAR 007
ENCODING 7
SWIDTH 288 0
DWIDTH 4 0
BBX 3 7 0 0
BITMAP
E0
A0
A0
A0
A0
A0
E0
ENDCHAR
STARTCHAR 008
ENCODING 8
SWIDTH 288 0
DWIDTH 4 0
BBX 3 7 0 0
BITMAP
E0
A0
A0
A0
A0
A0
E0
ENDCHAR
STARTCHAR 009
ENCODING 9
SWIDTH 288 0
DWIDTH 4 0
BBX 3 7 0 0
BITMAP
E0
A0
A0
A0
A0
A0
E0
ENDCHAR
STARTCHAR 010
ENCODING 10
SWIDTH 288 0
DWIDTH 4 0
BBX 3 7 0 0
BITMAP
E0
A0
A0
A0
A0
A0
E0
ENDCHAR
STARTCHAR 011
ENCODING 11
SWIDTH 288 0
DWIDTH 4 0
BBX 3 7 0 0
BITMAP
E0
A0
A0
A0
A0
A0
E0
ENDCHAR
STARTCHAR 012
ENCODING 12
SWIDTH 288 0
DWIDTH 4 0
BBX 3 7 0 0
BITMAP
E0
A0
A0
A0
A0
A0
E0
ENDCHAR
STARTCHAR 013
ENCODING 13
SWIDTH 288 0
DWIDTH 4 0
BBX 3 7 0 0
BITMAP
E0
A0
A0
A0
A0
A0
E0
ENDCHAR
STARTCHAR 014
ENCODING 14
SWIDTH 288 0
DWIDTH 4 0
BBX 3 7 0 0
BITMAP
E0
A0
A0
A0
A0
A0
E0
ENDCHAR
STARTCHAR 015
ENCODING 15
SWIDTH 288 0
DWIDTH 4 0
BBX 3 7 0 0
BITMAP
E0
A0
A0
A0
A0
A0
E0
ENDCHAR
STARTCHAR 016
ENCODING 16
SWIDTH 288 0
DWIDTH 4 0
BBX 3 7 0 0
BITMAP
E0
A0
A0
A0
A0
A0
E0
ENDCHAR
STARTCHAR 017
ENCODING 17
SWIDTH 288 0
DWIDTH 4 0
BBX 3 7 0 0
BITMAP
E0
A0
A0
A0
A0
A0
E0
ENDCHAR
STARTCHAR 018
ENCODING 18
SWIDTH 288 0
DWIDTH 4 0
BBX 3 7 0 0
BITMAP
E0
A0
A0
A0
A0
A0
E0
ENDCHAR
STARTCHAR 019
ENCODING 19
SWIDTH 288 0
DWIDTH 4 0
BBX 3 7 0 0
BITMAP
E0
A0
A0
A0
A0
A0
E0
ENDCHAR
STARTCHAR 020
ENCODING 20
SWIDTH 288 0
DWIDTH 4 0
BBX 3 7 0 0
BITMAP
E0
A0
A0
A0
A0
A0
E0
ENDCHAR
STARTCHAR 021
ENCODING 21
SWIDTH 288 0
DWIDTH 4 0
BBX 3 7 0 0
BITMAP
E0
A0
A0
A0
A0
A0
E0
ENDCHAR
STARTCHAR 022
ENCODING 22
SWIDTH 288 0
DWIDTH 4 0
BBX 3 7 0 0
BITMAP
E0
A0
A0
A0
A0
A0
E0
ENDCHAR
STARTCHAR 023
ENCODING 23
SWIDTH 288 0
DWIDTH 4 0
BBX 3 7 0 0
BITMAP
E0
A0
A0
A0
A0
A0
E0
ENDCHAR
STARTCHAR 024
ENCODING 24
SWIDTH 288 0
DWIDTH 4 0
BBX 3 7 0 0
BITMAP
E0
A0
A0
A0
A0
A0
E0
ENDCHAR
STARTCHAR 025
ENCODING 25
SWIDTH 288 0
DWIDTH 4 0
BBX 3 7 0 0
BITMAP
E0
A0
A0
A0
A0
A0
E0
ENDCHAR
STARTCHAR 026
ENCODING 26
SWIDTH 288 0
DWIDTH 4 0
BBX 3 7 0 0
BITMAP
E0
A0
A0
A0
A0
A0
E0
ENDCHAR
STARTCHAR 027
ENCODING 27
SWIDTH 288 0
DWIDTH 4 0
BBX 3 7 0 0
BITMAP
E0
A0
A0
A0
A0
A0
E0
ENDCHAR
STARTCHAR 028
ENCODING 28
SWIDTH 144 0
DWIDTH 2 0
BBX 0 0 0 0
BITMAP
ENDCHAR
STARTCHAR 029
ENCODING 29
SWIDTH 144 0
DWIDTH 2 0
BBX 0 0 0 0
BITMAP
ENDCHAR
STARTCHAR 030
ENCODING 30
SWIDTH 144 0
DWIDTH 2 0
BBX 0 0 0 0
BITMAP
ENDCHAR
STARTCHAR 031
ENCODING 31
SWIDTH 144 0
DWIDTH 2 0
BBX 0 0 0 0
BITMAP
ENDCHAR
STARTCHAR 032
ENCODING 32
SWIDTH 144 0
DWIDTH 2 0
BBX 0 0 0 0
BITMAP
ENDCHAR
STARTCHAR 033
ENCODING 33
SWIDTH 144 0
DWIDTH 2 0
BBX 1 7 0 0
BITMAP
80
80
80
80
80
00
80
ENDCHAR
STARTCHAR 034
ENCODING 34
SWIDTH 360 0
DWIDTH 5 0
BBX 4 3 0 4
BITMAP
50
50
A0
ENDCHAR
STARTCHAR 035
ENCODING 35
SWIDTH 432 0
DWIDTH 6 0
BBX 5 7 0 0
BITMAP
50
50
F8
50
F8
50
50
ENDCHAR
STARTCHAR 036
ENCODING 36
SWIDTH 432 0
DWIDTH 6 0
BBX 5 7 0 0
BITMAP
20
78
80
70
08
F0
20
ENDCHAR
STARTCHAR 037
ENCODING 37
SWIDTH 432 0
DWIDTH 6 0
BBX 5 7 0 0
BITMAP
88
90
10
20
40
48
88
ENDCHAR
STARTCHAR 038
ENCODING 38
SWIDTH 432 0
DWIDTH 6 0
BBX 5 7 0 0
BITMAP
20
50
20
68
B0
90
68
ENDCHAR
STARTCHAR 039
ENCODING 39
SWIDTH 216 0
DWIDTH 3 0
BBX 2 3 0 4
BITMAP
40
40
80
ENDCHAR
STARTCHAR 040
ENCODING 40
SWIDTH 360 0
DWIDTH 5 0
BBX 4 7 0 0
BITMAP
30
40
80
80
80
40
30
ENDCHAR
STARTCHAR 041
ENCODING 41
SWIDTH 360 0
DWIDTH 5 0
BBX 4 7 0 0
BITMAP
C0
20
10
10
10
20
C0
ENDCHAR
STARTCHAR 042
ENCODING 42
SWIDTH 360 0
DWIDTH 5 0
BBX 4 3 0 3
BITMAP
90
60
90
ENDCHAR
STARTCHAR 043
ENCODING 43
SWIDTH 432 0
DWIDTH 6 0
BBX 5 5 0 1
BITMAP
20
20
F8
20
20
ENDCHAR
STARTCHAR 044
ENCODING 44
SWIDTH 144 0
DWIDTH 2 0
BBX 1 3 0 -1
BITMAP
80
80
80
ENDCHAR
STARTCHAR 045
ENCODING 45
SWIDTH 432 0
DWIDTH 6 0
BBX 5 1 0 3
BITMAP
F8
ENDCHAR
STARTCHAR 046
ENCODING 46
SWIDTH 144 0
DWIDTH 2 0
BBX 1 2 0 0
BITMAP
80
80
ENDCHAR
STARTCHAR 047
ENCODING 47
SWIDTH 432 0
DWIDTH 6 0
BBX 5 7 0 0
BITMAP
08
10
10
20
40
40
80
ENDCHAR
STARTCHAR 048
ENCODING 48
SWIDTH 432 0
DWIDTH 6 0
BBX 5 7 0 0
BITMAP
70
88
98
A8
C8
88
70
ENDCHAR
STARTCHAR 049
ENCODING 49
SWIDTH 432 0
DWIDTH 6 0
BBX 5 7 0 0
BITMAP
20
60
20
20
20
20
F8
ENDCHAR
STARTCHAR 050
ENCODING 50
SWIDTH 432 0
DWIDTH 6 0
BBX 5 7 0 0
BITMAP
70
88
08
30
40
80
F8
ENDCHAR
STARTCHAR 051
ENCODING 51
SWIDTH 432 0
DWIDTH 6 0
BBX 5 7 0 0
BITMAP
70
88
08
30
08
88
70
ENDCHAR
STARTCHAR 052
ENCODING 52
SWIDTH 432 0
DWIDTH 6 0
BBX 5 7 0 0
BITMAP
18
28
48
88
F8
08
08
ENDCHAR
STARTCHAR 053
ENCODING 53
SWIDTH 432 0
DWIDTH 6 0
BBX 5 7 0 0
BITMAP
F8
80
F0
08
08
88
70
ENDCHAR
STARTCHAR 054
ENCODING 54
SWIDTH 432 0
DWIDTH 6 0
BBX 5 7 0 0
BITMAP
30
40
80
F0
88
88
70
ENDCHAR
STARTCHAR 055
ENCODING 55
SWIDTH 432 0
DWIDTH 6 0
BBX 5 7 0 0
BITMAP
F8
88
08
10
20
20
20
ENDCHAR
STARTCHAR 056
ENCODING 56
SWIDTH 432 0
DWIDTH 6 0
BBX 5 7 0 0
BITMAP
70
88
88
70
88
88
70
ENDCHAR
STARTCHAR 057
ENCODING 57
SWIDTH 432 0
DWIDTH 6 0
BBX 5 7 0 0
BITMAP
70
88
88
78
08
10
60
ENDCHAR
STARTCHAR 058
ENCODING 58
SWIDTH 144 0
DWIDTH 2 0
BBX 1 6 0 0
BITMAP
80
80
00
00
80
80
ENDCHAR
STARTCHAR 059
ENCODING 59
SWIDTH 144 0
DWIDTH 2 0
BBX 1 7 0 -1
BITMAP
80
80
00
00
80
80
80
ENDCHAR
STARTCHAR 060
ENCODING 60
SWIDTH 360 0
DWIDTH 5 0
BBX 4 7 0 0
BITMAP
10
20
40
80
40
20
10
ENDCHAR
STARTCHAR 061
ENCODING 61
SWIDTH 432 0
DWIDTH 6 0
BBX 5 4 0 1
BITMAP
F8
00
00
F8
ENDCHAR
STARTCHAR 062
ENCODING 62
SWIDTH 360 0
DWIDTH 5 0
BBX 4 7 0 0
BITMAP
80
40
20
10
20
40
80
ENDCHAR
STARTCHAR 063
ENCODING 63
SWIDTH 432 0
DWIDTH 6 0
BBX 5 7 0 0
BITMAP
70
88
08
10
20
00
20
ENDCHAR
STARTCHAR 064
ENCODING 64
SWIDTH 504 0
DWIDTH 7 0
BBX 6 7 0 0
BITMAP
78
84
B4
B4
BC
80
7C
ENDCHAR
STARTCHAR 065
ENCODING 65
SWIDTH 432 0
DWIDTH 6 0
BBX 5 7 0 0
BITMAP
70
88
F8
88
88
88
88
ENDCHAR
STARTCHAR 066
ENCODING 66
SWIDTH 432 0
DWIDTH 6 0
BBX 5 7 0 0
BITMAP
F0
88
F0
88
88
88
F0
ENDCHAR
STARTCHAR 067
ENCODING 67
SWIDTH 432 0
DWIDTH 6 0
BBX 5 7 0 0
BITMAP
70
88
80
80
80
88
70
ENDCHAR
STARTCHAR 068
ENCODING 68
SWIDTH 432 0
DWIDTH 6 0
BBX 5 7 0 0
BITMAP
F0
88
88
88
88
88
F0
ENDCHAR
STARTCHAR 069
ENCODING 69
SWIDTH 432 0
DWIDTH 6 0
BBX 5 7 0 0
BITMAP
F8
80
E0
80
80
80
F8
ENDCHAR
STARTCHAR 070
ENCODING 70
SWIDTH 432 0
DWIDTH 6 0
BBX 5 7 0 0
BITMAP
F8
80
E0
80
80
80
80
ENDCHAR
STARTCHAR 071
ENCODING 71
SWIDTH 432 0
DWIDTH 6 0
BBX 5 7 0 0
BITMAP
78
80
B8
88
88
88
70
ENDCHAR
STARTCHAR 072
ENCODING 72
SWIDTH 432 0
DWIDTH 6 0
BBX 5 7 0 0
BITMAP
88
88
F8
88
88
88
88
ENDCHAR
STARTCHAR 073
ENCODING 73
SWIDTH 288 0
DWIDTH 4 0
BBX 3 7 0 0
BITMAP
E0
40
40
40
40
40
E0
ENDCHAR
STARTCHAR 074
ENCODING 74
SWIDTH 432 0
DWIDTH 6 0
BBX 5 7 0 0
BITMAP
08
08
08
08
08
88
70
ENDCHAR
STARTCHAR 075
ENCODING 75
SWIDTH 432 0
DWIDTH 6 0
BBX 5 7 0 0
BITMAP
88
90
E0
90
88
88
88
ENDCHAR
STARTCHAR 076
ENCODING 76
SWIDTH 432 0
DWIDTH 6 0
BBX 5 7 0 0
BITMAP
80
80
80
80
80
80
F8
ENDCHAR
STARTCHAR 077
ENCODING 77
SWIDTH 432 0
DWIDTH 6 0
BBX 5 7 0 0
BITMAP
88
D8
A8
88
88
88
88
ENDCHAR
STARTCHAR 078
ENCODING 78
SWIDTH 432 0
DWIDTH 6 0
BBX 5 7 0 0
BITMAP
88
C8
A8
98
88
88
88
ENDCHAR
STARTCHAR 079
ENCODING 79
SWIDTH 432 0
DWIDTH 6 0
BBX 5 7 0 0
BITMAP
70
88
88
88
88
88
70
ENDCHAR
STARTCHAR 080
ENCODING 80
SWIDTH 432 0
DWIDTH 6 0
BBX 5 7 0 0
BITMAP
F0
88
F0
80
80
80
80
ENDCHAR
STARTCHAR 081
ENCODING 81
SWIDTH 432 0
DWIDTH 6 0
BBX 5 7 0 0
BITMAP
70
88
88
88
88
90
68
ENDCHAR
STARTCHAR 082
ENCODING 82
SWIDTH 432 0
DWIDTH 6 0
BBX 5 7 0 0
BITMAP
F0
88
F0
88
88
88
88
ENDCHAR
STARTCHAR 083
ENCODING 83
SWIDTH 432 0
DWIDTH 6 0
BBX 5 7 0 0
BITMAP
78
80
70
08
08
88
70
ENDCHAR
STARTCHAR 084
ENCODING 84
SWIDTH 432 0
DWIDTH 6 0
BBX 5 7 0 0
BITMAP
F8
20
20
20
20
20
20
ENDCHAR
STARTCHAR 085
ENCODING 85
SWIDTH 432 0
DWIDTH 6 0
BBX 5 7 0 0
BITMAP
88
88
88
88
88
88
70
ENDCHAR
STARTCHAR 086
ENCODING 86
SWIDTH 432 0
DWIDTH 6 0
BBX 5 7 0 0
BITMAP
88
88
88
88
50
50
20
ENDCHAR
STARTCHAR 087
ENCODING 87
SWIDTH 432 0
DWIDTH 6 0
BBX 5 7 0 0
BITMAP
88
88
88
88
A8
D8
88
ENDCHAR
STARTCHAR 088
ENCODING 88
SWIDTH 432 0
DWIDTH 6 0
BBX 5 7 0 0
BITMAP
88
50
20
50
88
88
88
ENDCHAR
STARTCHAR 089
ENCODING 89
SWIDTH 432 0
DWIDTH 6 0
BBX 5 7 0 0
BITMAP
88
50
20
20
20
20
20
ENDCHAR
STARTCHAR 090
ENCODING 90
SWIDTH 432 0
DWIDTH 6 0
BBX 5 7 0 0
BITMAP
F8
08
10
20
40
80
F8
ENDCHAR
STARTCHAR 091
ENCODING 91
SWIDTH 288 0
DWIDTH 4 0
BBX 3 7 0 0
BITMAP
E0
80
80
80
80
80
E0
ENDCHAR
STARTCHAR 092
ENCODING 92
SWIDTH 432 0
DWIDTH 6 0
BBX 5 7 0 0
BITMAP
80
40
40
20
10
10
08
ENDCHAR
STARTCHAR 093
ENCODING 93
SWIDTH 288 0
DWIDTH 4 0
BBX 3 7 0 0
BITMAP
E0
20
20
20
20
20
E0
ENDCHAR
STARTCHAR 094
ENCODING 94
SWIDTH 432 0
DWIDTH 6 0
BBX 5 3 0 4
BITMAP
20
50
88
ENDCHAR
STARTCHAR 095
ENCODING 95
SWIDTH 432 0
DWIDTH 6 0
BBX 5 1 0 -1
BITMAP
F8
ENDCHAR
STARTCHAR 096
ENCODING 96
SWIDTH 216 0
DWIDTH 3 0
BBX 2 3 0 4
BITMAP
80
80
40
ENDCHAR
STARTCHAR 097
ENCODING 97
SWIDTH 432 0
DWIDTH 6 0
BBX 5 5 0 0
BITMAP
70
08
78
88
78
ENDCHAR
STARTCHAR 098
ENCODING 98
SWIDTH 432 0
DWIDTH 6 0
BBX 5 7 0 0
BITMAP
80
80
B0
C8
88
88
F0
ENDCHAR
STARTCHAR 099
ENCODING 99
SWIDTH 432 0
DWIDTH 6 0
BBX 5 5 0 0
BITMAP
70
88
80
88
70
ENDCHAR
STARTCHAR 100
ENCODING 100
SWIDTH 432 0
DWIDTH 6 0
BBX 5 7 0 0
BITMAP
08
08
68
98
88
88
78
ENDCHAR
STARTCHAR 101
ENCODING 101
SWIDTH 432 0
DWIDTH 6 0
BBX 5 5 0 0
BITMAP
70
88
F8
80
78
ENDCHAR
STARTCHAR 102
ENCODING 102
SWIDTH 360 0
DWIDTH 5 0
BBX 4 7 0 0
BITMAP
30
40
F0
40
40
40
40
ENDCHAR
STARTCHAR 103
ENCODING 103
SWIDTH 432 0
DWIDTH 6 0
BBX 5 6 0 -1
BITMAP
78
88
88
78
08
F0
ENDCHAR
STARTCHAR 104
ENCODING 104
SWIDTH 432 0
DWIDTH 6 0
BBX 5 7 0 0
BITMAP
80
80
B0
C8
88
88
88
ENDCHAR
STARTCHAR 105
ENCODING 105
SWIDTH 144 0
DWIDTH 2 0
BBX 1 7 0 0
BITMAP
80
00
80
80
80
80
80
ENDCHAR
STARTCHAR 106
ENCODING 106
SWIDTH 432 0
DWIDTH 6 0
BBX 5 8 0 -1
BITMAP
08
00
08
08
08
08
88
88
ENDCHAR
STARTCHAR 107
ENCODING 107
SWIDTH 360 0
DWIDTH 5 0
BBX 4 7 0 0
BITMAP
80
80
90
A0
C0
A0
90
ENDCHAR
STARTCHAR 108
ENCODING 108
SWIDTH 216 0
DWIDTH 3 0
BBX 2 7 0 0
BITMAP
80
80
80
80
80
80
40
ENDCHAR
STARTCHAR 109
ENCODING 109
SWIDTH 432 0
DWIDTH 6 0
BBX 5 5 0 0
BITMAP
D0
A8
A8
88
88
ENDCHAR
STARTCHAR 110
ENCODING 110
SWIDTH 432 0
DWIDTH 6 0
BBX 5 5 0 0
BITMAP
F0
88
88
88
88
ENDCHAR
STARTCHAR 111
ENCODING 111
SWIDTH 432 0
DWIDTH 6 0
BBX 5 5 0 0
BITMAP
70
88
88
88
70
ENDCHAR
STARTCHAR 112
ENCODING 112
SWIDTH 432 0
DWIDTH 6 0
BBX 5 6 0 -1
BITMAP
B0
C8
88
88
F0
80
ENDCHAR
STARTCHAR 113
ENCODING 113
SWIDTH 432 0
DWIDTH 6 0
BBX 5 6 0 -1
BITMAP
68
98
88
88
78
08
ENDCHAR
STARTCHAR 114
ENCODING 114
SWIDTH 432 0
DWIDTH 6 0
BBX 5 5 0 0
BITMAP
B0
C8
80
80
80
ENDCHAR
STARTCHAR 115
ENCODING 115
SWIDTH 432 0
DWIDTH 6 0
BBX 5 5 0 0
BITMAP
78
80
70
08
F0
ENDCHAR
STARTCHAR 116
ENCODING 116
SWIDTH 288 0
DWIDTH 4 0
BBX 3 7 0 0
BITMAP
40
40
E0
40
40
40
20
ENDCHAR
STARTCHAR 117
ENCODING 117
SWIDTH 432 0
DWIDTH 6 0
BBX 5 5 0 0
BITMAP
88
88
88
88
78
ENDCHAR
STARTCHAR 118
ENCODING 118
SWIDTH 432 0
DWIDTH 6 0
BBX 5 5 0 0
BITMAP
88
88
88
50
20
ENDCHAR
STARTCHAR 119
ENCODING 119
SWIDTH 432 0
DWIDTH 6 0
BBX 5 5 0 0
BITMAP
88
88
A8
A8
78
ENDCHAR
STARTCHAR 120
ENCODING 120
SWIDTH 432 0
DWIDTH 6 0
BBX 5 5 0 0
BITMAP
88
50
20
50
88
ENDCHAR
STARTCHAR 121
ENCODING 121
SWIDTH 432 0
DWIDTH 6 0
BBX 5 6 0 -1
BITMAP
88
88
88
78
08
F0
ENDCHAR
STARTCHAR 122
ENCODING 122
SWIDTH 432 0
DWIDTH 6 0
BBX 5 5 0 0
BITMAP
F8
10
20
40
F8
ENDCHAR
STARTCHAR 123
ENCODING 123
SWIDTH 360 0
DWIDTH 5 0
BBX 4 7 0 0
BITMAP
30
40
40
80
40
40
30
ENDCHAR
STARTCHAR 124
ENCODING 124
SWIDTH 144 0
DWIDTH 2 0
BBX 1 7 0 0
BITMAP
80
80
80
80
80
80
80
ENDCHAR
STARTCHAR 125
ENCODING 125
SWIDTH 360 0
DWIDTH 5 0
BBX 4 7 0 0
BITMAP
C0
20
20
10
20
20
C0
ENDCHAR
STARTCHAR 126
ENCODING 126
SWIDTH 504 0
DWIDTH 7 0
BBX 6 2 0 5
BITMAP
64
98
ENDCHAR
STARTCHAR 127
ENCODING 127
SWIDTH 288 0
DWIDTH 4 0
BBX 3 7 0 0
BITMAP
E0
A0
A0
A0
A0
A0
E0
ENDCHAR
STARTCHAR 128
ENCODING 128
SWIDTH 0 0
DWIDTH 0 0
BBX 0 0 0 0
BITMAP
ENDCHAR
STARTCHAR 129
ENCODING 129
SWIDTH 0 0
DWIDTH 0 0
BBX 0 0 0 0
BITMAP
ENDCHAR
STARTCHAR 130
ENCODING 130
SWIDTH 0 0
DWIDTH 0 0
BBX 0 0 0 0
BITMAP
ENDCHAR
STARTCHAR 131
ENCODING 131
SWIDTH 0 0
DWIDTH 0 0
BBX 0 0 0 0
BITMAP
ENDCHAR
STARTCHAR 132
ENCODING 132
SWIDTH 0 0
DWIDTH 0 0
BBX 0 0 0 0
BITMAP
ENDCHAR
STARTCHAR 133
ENCODING 133
SWIDTH 0 0
DWIDTH 0 0
BBX 0 0 0 0
BITMAP
ENDCHAR
STARTCHAR 134
ENCODING 134
SWIDTH 0 0
DWIDTH 0 0
BBX 0 0 0 0
BITMAP
ENDCHAR
STARTCHAR 135
ENCODING 135
SWIDTH 0 0
DWIDTH 0 0
BBX 0 0 0 0
BITMAP
ENDCHAR
STARTCHAR 136
ENCODING 136
SWIDTH 0 0
DWIDTH 0 0
BBX 0 0 0 0
BITMAP
ENDCHAR
STARTCHAR 137
ENCODING 137
SWIDTH 0 0
DWIDTH 0 0
BBX 0 0 0 0
BITMAP
ENDCHAR
STARTCHAR 138
ENCODING 138
SWIDTH 0 0
DWIDTH 0 0
BBX 0 0 0 0
BITMAP
ENDCHAR
STARTCHAR 139
ENCODING 139
SWIDTH 0 0
DWIDTH 0 0
BBX 0 0 0 0
BITMAP
ENDCHAR
STARTCHAR 140
ENCODING 140
SWIDTH 0 0
DWIDTH 0 0
BBX 0 0 0 0
BITMAP
ENDCHAR
STARTCHAR 141
ENCODING 141
SWIDTH 0 0
DWIDTH 0 0
BBX 0 0 0 0
BITMAP
ENDCHAR
STARTCHAR 142
ENCODING 142
SWIDTH 0 0
DWIDTH 0 0
BBX 0 0 0 0
BITMAP
ENDCHAR
STARTCHAR 143
ENCODING 143
SWIDTH 0 0
DWIDTH 0 0
BBX 0 0 0 0
BITMAP
ENDCHAR
STARTCHAR 144
ENCODING 144
SWIDTH 0 0
DWIDTH 0 0
BBX 0 0 0 0
BITMAP
ENDCHAR
STARTCHAR 145
ENCODING 145
SWIDTH 0 0
DWIDTH 0 0
BBX 0 0 0 0
BITMAP
ENDCHAR
STARTCHAR 146
ENCODING 146
SWIDTH 0 0
DWIDTH 0 0
BBX 0 0 0 0
BITMAP
ENDCHAR
STARTCHAR 147
ENCODING 147
SWIDTH 0 0
DWIDTH 0 0
BBX 0 0 0 0
BITMAP
ENDCHAR
STARTCHAR 148
ENCODING 148
SWIDTH 0 0
DWIDTH 0 0
BBX 0 0 0 0
BITMAP
ENDCHAR
STARTCHAR 149
ENCODING 149
SWIDTH 0 0
DWIDTH 0 0
BBX 0 0 0 0
BITMAP
ENDCHAR
STARTCHAR 150
ENCODING 150
SWIDTH 0 0
DWIDTH 0 0
BBX 0 0 0 0
BITMAP
ENDCHAR
STARTCHAR 151
ENCODING 151
SWIDTH 0 0
DWIDTH 0 0
BBX 0 0 0 0
BITMAP
ENDCHAR
STARTCHAR 152
ENCODING 152
SWIDTH 0 0
DWIDTH 0 0
BBX 0 0 0 0
BITMAP
ENDCHAR
STARTCHAR 153
ENCODING 153
SWIDTH 0 0
DWIDTH 0 0
BBX 0 0 0 0
BITMAP
ENDCHAR
STARTCHAR 154
ENCODING 154
SWIDTH 0 0
DWIDTH 0 0
BBX 0 0 0 0
BITMAP
ENDCHAR
STARTCHAR 155
ENCODING 155
SWIDTH 0 0
DWIDTH 0 0
BBX 0 0 0 0
BITMAP
ENDCHAR
STARTCHAR 156
ENCODING 156
SWIDTH 0 0
DWIDTH 0 0
BBX 0 0 0 0
BITMAP
ENDCHAR
STARTCHAR 157
ENCODING 157
SWIDTH 0 0
DWIDTH 0 0
BBX 0 0 0 0
BITMAP
ENDCHAR
STARTCHAR 158
ENCODING 158
SWIDTH 0 0
DWIDTH 0 0
BBX 0 0 0 0
BITMAP
ENDCHAR
STARTCHAR 159
ENCODING 159
SWIDTH 0 0
DWIDTH 0 0
BBX 0 0 0 0
BITMAP
ENDCHAR
STARTCHAR 160
ENCODING 160
SWIDTH 144 0
DWIDTH 2 0
BBX 0 0 0 0
BITMAP
ENDCHAR
STARTCHAR 161
ENCODING 161
SWIDTH 144 0
DWIDTH 2 0
BBX 1 7 0 0
BITMAP
80
00
80
80
80
80
80
ENDCHAR
STARTCHAR 162
ENCODING 162
SWIDTH 360 0
DWIDTH 5 0
BBX 4 5 0 0
BITMAP
20
70
80
70
20
ENDCHAR
STARTCHAR 163
ENCODING 163
SWIDTH 432 0
DWIDTH 6 0
BBX 5 7 0 0
BITMAP
38
40
40
F0
40
40
F8
ENDCHAR
STARTCHAR 164
ENCODING 164
SWIDTH 432 0
DWIDTH 6 0
BBX 5 5 0 1
BITMAP
88
70
50
70
88
ENDCHAR
STARTCHAR 165
ENCODING 165
SWIDTH 432 0
DWIDTH 6 0
BBX 5 7 0 1
BITMAP
88
50
20
70
20
70
20
ENDCHAR
STARTCHAR 166
ENCODING 166
SWIDTH 144 0
DWIDTH 2 0
BBX 1 7 0 0
BITMAP
80
80
80
00
80
80
80
ENDCHAR
STARTCHAR 167
ENCODING 167
SWIDTH 432 0
DWIDTH 6 0
BBX 5 7 0 0
BITMAP
78
80
70
50
70
08
F0
ENDCHAR
STARTCHAR 168
ENCODING 168
SWIDTH 288 0
DWIDTH 4 0
BBX 3 1 0 6
BITMAP
A0
ENDCHAR
STARTCHAR 169
ENCODING 169
SWIDTH 576 0
DWIDTH 8 0
BBX 6 5 0 0
BITMAP
78
94
A4
94
78
ENDCHAR
STARTCHAR 170
ENCODING 170
SWIDTH 432 0
DWIDTH 6 0
BBX 5 6 0 1
BITMAP
70
08
F8
78
00
F8
ENDCHAR
STARTCHAR 171
ENCODING 171
SWIDTH 432 0
DWIDTH 6 0
BBX 5 5 0 0
BITMAP
28
50
A0
50
28
ENDCHAR
STARTCHAR 172
ENCODING 172
SWIDTH 360 0
DWIDTH 5 0
BBX 4 2 0 3
BITMAP
F0
10
ENDCHAR
STARTCHAR 173
ENCODING 173
SWIDTH 288 0
DWIDTH 4 0
BBX 3 1 0 2
BITMAP
E0
ENDCHAR
STARTCHAR 174
ENCODING 174
SWIDTH 576 0
DWIDTH 8 0
BBX 6 5 0 1
BITMAP
78
B4
A4
D4
78
ENDCHAR
STARTCHAR 175
ENCODING 175
SWIDTH 432 0
DWIDTH 6 0
BBX 5 1 0 8
BITMAP
F8
ENDCHAR
STARTCHAR 176
ENCODING 176
SWIDTH 288 0
DWIDTH 4 0
BBX 3 3 0 5
BITMAP
40
A0
40
ENDCHAR
STARTCHAR 177
ENCODING 177
SWIDTH 432 0
DWIDTH 6 0
BBX 5 7 0 0
BITMAP
20
20
F8
20
20
00
F8
ENDCHAR
STARTCHAR 178
ENCODING 178
SWIDTH 288 0
DWIDTH 4 0
BBX 3 4 0 3
BITMAP
C0
20
40
E0
ENDCHAR
STARTCHAR 179
ENCODING 179
SWIDTH 288 0
DWIDTH 4 0
BBX 3 4 0 3
BITMAP
C0
60
20
C0
ENDCHAR
STARTCHAR 180
ENCODING 180
SWIDTH 216 0
DWIDTH 3 0
BBX 2 2 0 6
BITMAP
40
80
ENDCHAR
STARTCHAR 181
ENCODING 181
SWIDTH 432 0
DWIDTH 6 0
BBX 5 6 0 -1
BITMAP
88
88
88
98
E8
80
ENDCHAR
STARTCHAR 182
ENCODING 182
SWIDTH 432 0
DWIDTH 6 0
BBX 5 7 0 0
BITMAP
78
E8
E8
68
28
28
28
ENDCHAR
STARTCHAR 183
ENCODING 183
SWIDTH 144 0
DWIDTH 2 0
BBX 1 1 0 3
BITMAP
80
ENDCHAR
STARTCHAR 184
ENCODING 184
SWIDTH 216 0
DWIDTH 3 0
BBX 1 1 1 -1
BITMAP
80
ENDCHAR
STARTCHAR 185
ENCODING 185
SWIDTH 288 0
DWIDTH 4 0
BBX 3 4 0 4
BITMAP
40
C0
40
E0
ENDCHAR
STARTCHAR 186
ENCODING 186
SWIDTH 432 0
DWIDTH 6 0
BBX 5 6 0 1
BITMAP
70
88
88
70
00
F8
ENDCHAR
STARTCHAR 187
ENCODING 187
SWIDTH 360 0
DWIDTH 5 0
BBX 5 5 0 0
BITMAP
A0
50
28
50
A0
ENDCHAR
STARTCHAR 188
ENCODING 188
SWIDTH 648 0
DWIDTH 9 0
BBX 5 7 0 0
BITMAP
88
90
10
20
58
58
88
ENDCHAR
STARTCHAR 189
ENCODING 189
SWIDTH 648 0
DWIDTH 9 0
BBX 5 7 0 0
BITMAP
88
90
10
20
48
50
98
ENDCHAR
STARTCHAR 190
ENCODING 190
SWIDTH 648 0
DWIDTH 9 0
BBX 5 7 0 0
BITMAP
C8
50
90
20
58
58
88
ENDCHAR
STARTCHAR 191
ENCODING 191
SWIDTH 432 0
DWIDTH 6 0
BBX 5 7 0 0
BITMAP
20
00
20
40
80
88
70
ENDCHAR
STARTCHAR 192
ENCODING 192
SWIDTH 432 0
DWIDTH 6 0
BBX 5 9 0 0
BITMAP
C0
00
70
88
F8
88
88
88
88
ENDCHAR
STARTCHAR 193
ENCODING 193
SWIDTH 432 0
DWIDTH 6 0
BBX 5 9 0 0
BITMAP
18
00
70
88
F8
88
88
88
88
ENDCHAR
STARTCHAR 194
ENCODING 194
SWIDTH 432 0
DWIDTH 6 0
BBX 5 9 0 0
BITMAP
70
88
70
88
F8
88
88
88
88
ENDCHAR
STARTCHAR 195
ENCODING 195
SWIDTH 432 0
DWIDTH 6 0
BBX 5 9 0 0
BITMAP
F8
00
70
88
F8
88
88
88
88
ENDCHAR
STARTCHAR 196
ENCODING 196
SWIDTH 432 0
DWIDTH 6 0
BBX 5 9 0 0
BITMAP
50
00
70
88
F8
88
88
88
88
ENDCHAR
STARTCHAR 197
ENCODING 197
SWIDTH 432 0
DWIDTH 6 0
BBX 5 9 0 0
BITMAP
70
88
70
88
F8
88
88
88
88
ENDCHAR
STARTCHAR 198
ENCODING 198
SWIDTH 504 0
DWIDTH 7 0
BBX 6 7 0 0
BITMAP
7C
A0
F8
A0
A0
A0
BC
ENDCHAR
STARTCHAR 199
ENCODING 199
SWIDTH 432 0
DWIDTH 6 0
BBX 5 9 0 -2
BITMAP
70
88
80
80
80
88
70
10
20
ENDCHAR
STARTCHAR 200
ENCODING 200
SWIDTH 432 0
DWIDTH 6 0
BBX 5 9 0 0
BITMAP
C0
00
F8
80
E0
80
80
80
F8
ENDCHAR
STARTCHAR 201
ENCODING 201
SWIDTH 432 0
DWIDTH 6 0
BBX 5 9 0 0
BITMAP
18
00
F8
80
E0
80
80
80
F8
ENDCHAR
STARTCHAR 202
ENCODING 202
SWIDTH 432 0
DWIDTH 6 0
BBX 5 9 0 0
BITMAP
70
88
F8
80
E0
80
80
80
F8
ENDCHAR
STARTCHAR 203
ENCODING 203
SWIDTH 432 0
DWIDTH 6 0
BBX 5 9 0 0
BITMAP
50
00
F8
80
E0
80
80
80
F8
ENDCHAR
STARTCHAR 204
ENCODING 204
SWIDTH 288 0
DWIDTH 4 0
BBX 3 9 0 0
BITMAP
C0
00
E0
40
40
40
40
40
E0
ENDCHAR
STARTCHAR 205
ENCODING 205
SWIDTH 288 0
DWIDTH 4 0
BBX 3 9 0 0
BITMAP
60
00
E0
40
40
40
40
40
E0
ENDCHAR
STARTCHAR 206
ENCODING 206
SWIDTH 288 0
DWIDTH 4 0
BBX 3 9 0 0
BITMAP
40
A0
E0
40
40
40
40
40
E0
ENDCHAR
STARTCHAR 207
ENCODING 207
SWIDTH 288 0
DWIDTH 4 0
BBX 3 9 0 0
BITMAP
A0
00
E0
40
40
40
40
40
E0
ENDCHAR
STARTCHAR 208
ENCODING 208
SWIDTH 504 0
DWIDTH 7 0
BBX 6 7 0 0
BITMAP
78
44
E4
44
44
44
78
ENDCHAR
STARTCHAR 209
ENCODING 209
SWIDTH 432 0
DWIDTH 6 0
BBX 5 9 0 0
BITMAP
F8
00
88
C8
A8
98
88
88
88
ENDCHAR
STARTCHAR 210
ENCODING 210
SWIDTH 432 0
DWIDTH 6 0
BBX 5 9 0 0
BITMAP
C0
00
70
88
88
88
88
88
70
ENDCHAR
STARTCHAR 211
ENCODING 211
SWIDTH 432 0
DWIDTH 6 0
BBX 5 9 0 0
BITMAP
18
00
70
88
88
88
88
88
70
ENDCHAR
STARTCHAR 212
ENCODING 212
SWIDTH 432 0
DWIDTH 6 0
BBX 5 9 0 0
BITMAP
70
88
70
88
88
88
88
88
70
ENDCHAR
STARTCHAR 213
ENCODING 213
SWIDTH 432 0
DWIDTH 6 0
BBX 5 9 0 0
BITMAP
F8
00
70
88
88
88
88
88
70
ENDCHAR
STARTCHAR 214
ENCODING 214
SWIDTH 432 0
DWIDTH 6 0
BBX 5 9 0 0
BITMAP
50
00
70
88
88
88
88
88
70
ENDCHAR
STARTCHAR 215
ENCODING 215
SWIDTH 360 0
DWIDTH 5 0
BBX 4 4 0 0
BITMAP
90
60
60
90
ENDCHAR
STARTCHAR 216
ENCODING 216
SWIDTH 432 0
DWIDTH 6 0
BBX 5 7 0 0
BITMAP
70
88
98
A8
C8
88
70
ENDCHAR
STARTCHAR 217
ENCODING 217
SWIDTH 432 0
DWIDTH 6 0
BBX 5 9 0 0
BITMAP
C0
00
88
88
88
88
88
88
70
ENDCHAR
STARTCHAR 218
ENCODING 218
SWIDTH 432 0
DWIDTH 6 0
BBX 5 9 0 0
BITMAP
18
00
88
88
88
88
88
88
70
ENDCHAR
STARTCHAR 219
ENCODING 219
SWIDTH 432 0
DWIDTH 6 0
BBX 5 11 0 -2
BITMAP
88
00
88
88
88
88
88
88
70
00
70
ENDCHAR
STARTCHAR 220
ENCODING 220
SWIDTH 432 0
DWIDTH 6 0
BBX 5 9 0 0
BITMAP
50
00
88
88
88
88
88
88
70
ENDCHAR
STARTCHAR 221
ENCODING 221
SWIDTH 432 0
DWIDTH 6 0
BBX 5 9 0 0
BITMAP
18
00
88
50
20
20
20
20
20
ENDCHAR
STARTCHAR 222
ENCODING 222
SWIDTH 432 0
DWIDTH 6 0
BBX 5 7 0 0
BITMAP
80
F0
88
F0
80
80
80
ENDCHAR
STARTCHAR 223
ENCODING 223
SWIDTH 432 0
DWIDTH 6 0
BBX 5 7 0 0
BITMAP
60
90
B0
88
88
88
B0
ENDCHAR
STARTCHAR 224
ENCODING 224
SWIDTH 432 0
DWIDTH 6 0
BBX 5 7 0 0
BITMAP
C0
00
70
08
78
88
78
ENDCHAR
STARTCHAR 225
ENCODING 225
SWIDTH 432 0
DWIDTH 6 0
BBX 5 7 0 0
BITMAP
18
00
70
08
78
88
78
ENDCHAR
STARTCHAR 226
ENCODING 226
SWIDTH 432 0
DWIDTH 6 0
BBX 5 7 0 0
BITMAP
70
88
70
08
78
88
78
ENDCHAR
STARTCHAR 227
ENCODING 227
SWIDTH 432 0
DWIDTH 6 0
BBX 5 7 0 0
BITMAP
F8
00
70
08
78
88
78
ENDCHAR
STARTCHAR 228
ENCODING 228
SWIDTH 432 0
DWIDTH 6 0
BBX 5 7 0 0
BITMAP
50
00
70
08
78
88
78
ENDCHAR
STARTCHAR 229
ENCODING 229
SWIDTH 432 0
DWIDTH 6 0
BBX 5 7 0 0
BITMAP
20
00
70
08
78
88
78
ENDCHAR
STARTCHAR 230
ENCODING 230
SWIDTH 720 0
DWIDTH 10 0
BBX 8 5 0 0
BITMAP
6E
11
7F
90
6F
ENDCHAR
STARTCHAR 231
ENCODING 231
SWIDTH 432 0
DWIDTH 6 0
BBX 5 7 0 -2
BITMAP
70
88
80
88
70
10
20
ENDCHAR
STARTCHAR 232
ENCODING 232
SWIDTH 432 0
DWIDTH 6 0
BBX 5 7 0 0
BITMAP
C0
00
70
88
F8
80
78
ENDCHAR
STARTCHAR 233
ENCODING 233
SWIDTH 432 0
DWIDTH 6 0
BBX 5 7 0 0
BITMAP
18
00
70
88
F8
80
78
ENDCHAR
STARTCHAR 234
ENCODING 234
SWIDTH 432 0
DWIDTH 6 0
BBX 5 8 0 0
BITMAP
70
88
00
70
88
F8
80
78
ENDCHAR
STARTCHAR 235
ENCODING 235
SWIDTH 432 0
DWIDTH 6 0
BBX 5 7 0 0
BITMAP
50
00
70
88
F8
80
78
ENDCHAR
STARTCHAR 236
ENCODING 236
SWIDTH 216 0
DWIDTH 3 0
BBX 2 7 0 0
BITMAP
C0
00
40
40
40
40
40
ENDCHAR
STARTCHAR 237
ENCODING 237
SWIDTH 216 0
DWIDTH 3 0
BBX 2 7 0 0
BITMAP
C0
00
80
80
80
80
80
ENDCHAR
STARTCHAR 238
ENCODING 238
SWIDTH 216 0
DWIDTH 3 0
BBX 3 8 0 0
BITMAP
40
A0
00
40
40
40
40
40
ENDCHAR
STARTCHAR 239
ENCODING 239
SWIDTH 216 0
DWIDTH 3 0
BBX 3 7 0 0
BITMAP
A0
00
40
40
40
40
40
ENDCHAR
STARTCHAR 240
ENCODING 240
SWIDTH 432 0
DWIDTH 6 0
BBX 5 7 0 0
BITMAP
28
10
28
08
78
88
70
ENDCHAR
STARTCHAR 241
ENCODING 241
SWIDTH 432 0
DWIDTH 6 0
BBX 5 7 0 0
BITMAP
F8
00
F0
88
88
88
88
ENDCHAR
STARTCHAR 242
ENCODING 242
SWIDTH 432 0
DWIDTH 6 0
BBX 5 7 0 0
BITMAP
C0
00
70
88
88
88
70
ENDCHAR
STARTCHAR 243
ENCODING 243
SWIDTH 432 0
DWIDTH 6 0
BBX 5 7 0 0
BITMAP
18
00
70
88
88
88
70
ENDCHAR
STARTCHAR 244
ENCODING 244
SWIDTH 432 0
DWIDTH 6 0
BBX 5 7 0 0
BITMAP
70
88
70
88
88
88
70
ENDCHAR
STARTCHAR 245
ENCODING 245
SWIDTH 432 0
DWIDTH 6 0
BBX 5 7 0 0
BITMAP
F8
00
70
88
88
88
70
ENDCHAR
STARTCHAR 246
ENCODING 246
SWIDTH 432 0
DWIDTH 6 0
BBX 5 7 0 0
BITMAP
50
00
70
88
88
88
70
ENDCHAR
STARTCHAR 247
ENCODING 247
SWIDTH 432 0
DWIDTH 6 0
BBX 5 5 0 1
BITMAP
20
00
F8
00
20
ENDCHAR
STARTCHAR 248
ENCODING 248
SWIDTH 432 0
DWIDTH 6 0
BBX 5 5 0 0
BITMAP
70
98
A8
C8
70
ENDCHAR
STARTCHAR 249
ENCODING 249
SWIDTH 432 0
DWIDTH 6 0
BBX 5 7 0 0
BITMAP
C0
00
88
88
88
88
78
ENDCHAR
STARTCHAR 250
ENCODING 250
SWIDTH 432 0
DWIDTH 6 0
BBX 5 7 0 0
BITMAP
18
00
88
88
88
88
78
ENDCHAR
STARTCHAR 251
ENCODING 251
SWIDTH 432 0
DWIDTH 6 0
BBX 5 8 0 0
BITMAP
70
88
00
88
88
88
88
78
ENDCHAR
STARTCHAR 252
ENCODING 252
SWIDTH 432 0
DWIDTH 6 0
BBX 5 7 0 0
BITMAP
50
00
88
88
88
88
78
ENDCHAR
STARTCHAR 253
ENCODING 253
SWIDTH 432 0
DWIDTH 6 0
BBX 5 8 0 -1
BITMAP
18
00
88
88
88
78
08
F0
ENDCHAR
STARTCHAR 254
ENCODING 254
SWIDTH 432 0
DWIDTH 6 0
BBX 5 8 0 0
BITMAP
80
80
B0
C8
88
F0
80
80
ENDCHAR
STARTCHAR 255
ENCODING 255
SWIDTH 432 0
DWIDTH 6 0
BBX 5 8 0 -1
BITMAP
50
00
88
88
88
78
08
F0
ENDCHAR
ENDFONT
